<svg width="661" height="148" viewBox="0 0 661 148" fill="none" xmlns="http://www.w3.org/2000/svg">
<path d="M115.213 132.415H44.2771C28.1341 132.415 15 118.516 15 101.433C15 93.1852 18.0532 85.414 23.5949 79.5481C27.5143 75.4022 32.4255 72.534 37.7285 71.243C37.1117 69.2171 36.7933 67.0923 36.7933 64.948C36.7933 59.4369 38.8349 54.24 42.5401 50.3175C46.2468 46.3951 51.1625 44.2347 56.3814 44.2347H71.5678C75.9894 42.1035 79.834 37.9899 79.1284 24.2971C78.9586 20.8427 80.6451 17.6863 83.5298 16.0522C86.3811 14.4376 89.7566 14.6951 92.3373 16.7292C102.395 24.702 109.908 36.0287 112.279 46.6574C118.647 50.2463 122.68 57.2506 122.68 64.948C122.68 67.1036 122.363 69.2284 121.751 71.2479C134.792 74.4369 144.488 86.9282 144.488 101.435C144.488 109.683 141.435 117.457 135.894 123.321C130.335 129.185 122.99 132.415 115.213 132.415ZM56.3828 50.7111C52.7986 50.7111 49.4209 52.1978 46.8697 54.8958C44.32 57.5955 42.915 61.1649 42.915 64.9464C42.915 67.4729 43.5609 69.9588 44.7822 72.1356L47.2921 76.6071L42.3932 77.0184C36.9648 77.4735 31.8271 80 27.9245 84.1281C23.5382 88.7712 21.1232 94.9165 21.1232 101.433C21.1232 114.945 31.5118 125.937 44.2787 125.937H115.214C121.36 125.937 127.17 123.379 131.571 118.736C135.955 114.098 138.37 107.952 138.37 101.433C138.37 88.7648 129.019 78.0403 117.08 77.0184L112.166 76.5974L114.703 72.1226C115.92 69.9766 116.563 67.4955 116.563 64.9464C116.563 59.2588 113.353 54.1201 108.387 51.8561L106.884 51.171L106.589 49.4673C104.93 39.9155 98.0676 29.3581 88.6797 21.918C87.723 21.1666 86.7834 21.5569 86.4233 21.7625C86.1316 21.9293 85.1798 22.5772 85.2456 23.9505C85.9844 38.3122 82.3301 46.4906 73.3949 50.4601L72.8276 50.7127L56.3828 50.7111Z" fill="black"/>
<path d="M58.0877 90.4312C58.256 90.5608 58.4397 90.6904 58.5928 90.8361C64.9746 95.953 66.3827 105.443 61.776 112.407C60.72 114.027 59.4192 115.387 57.9193 116.456C55.4094 118.254 52.4863 119.144 49.5479 119.144C46.5482 119.144 43.5486 118.205 41.0081 116.326C37.7329 113.913 35.5597 110.302 34.8558 106.14C34.1671 101.994 35.0394 97.7992 37.3198 94.3334C39.6001 90.8847 43.013 88.5688 46.9308 87.84C50.8641 87.1112 54.8126 88.0182 58.0877 90.4312Z" stroke="black" stroke-width="5" stroke-linejoin="round"/>
<path d="M58.5928 90.8361C58.4397 90.6904 58.256 90.5608 58.0877 90.4312C54.8126 88.0182 50.8641 87.1112 46.9308 87.84C43.013 88.5688 39.6001 90.8847 37.3198 94.3334C35.0394 97.7992 34.1671 101.994 34.8558 106.14C35.5597 110.302 37.7329 113.913 41.0081 116.326C43.5486 118.205 46.5482 119.144 49.5479 119.144C52.4863 119.144 55.4094 118.254 57.9193 116.456C59.4192 115.387 60.72 114.027 61.776 112.407C66.3827 105.443 64.9746 95.953 58.5928 90.8361ZM56.9398 91.5811C53.879 92.0507 51.0171 93.7828 49.1194 96.6493C45.477 102.172 46.7625 109.784 51.9813 113.638C53.3281 114.626 54.8126 115.29 56.3277 115.598C56.7103 115.679 57.1083 115.743 57.4908 115.776C52.7771 119.161 46.3952 119.323 41.4366 115.662C35.0394 110.933 33.463 101.589 37.9472 94.8031C42.416 88.0344 51.2467 86.3663 57.6439 91.0952C57.7969 91.2086 57.9653 91.3382 58.1183 91.4677C57.7204 91.4839 57.3225 91.5325 56.9398 91.5811Z" fill="black"/>
<path d="M96.1648 90.8361C96.012 90.6904 95.8283 90.5608 95.66 90.4312C92.3999 88.0182 88.4358 87.1112 84.5181 87.84C80.6004 88.5688 77.1875 90.8847 74.8921 94.3334C72.6114 97.7992 71.7392 101.994 72.4432 106.14C73.1316 110.302 75.3205 113.913 78.5806 116.326C81.167 118.237 84.1508 119.193 87.1354 119.193C90.0436 119.193 92.951 118.286 95.4918 116.456C96.9914 115.387 98.2919 114.027 99.3632 112.407C103.955 105.443 102.547 95.953 96.1648 90.8361Z" stroke="black" stroke-width="5"/>
<path d="M96.1648 90.8361C96.012 90.6904 95.8283 90.5608 95.66 90.4312C92.3999 88.0182 88.4358 87.1112 84.5181 87.84C80.6004 88.5688 77.1875 90.8847 74.8921 94.3334C72.6114 97.7992 71.7392 101.994 72.4432 106.14C73.1316 110.302 75.3205 113.913 78.5806 116.326C81.167 118.237 84.1508 119.193 87.1354 119.193C90.0436 119.193 92.951 118.286 95.4918 116.456C96.9914 115.387 98.2919 114.027 99.3632 112.407C103.955 105.443 102.547 95.953 96.1648 90.8361ZM94.527 91.5811C91.4814 92.0345 88.6049 93.7666 86.707 96.6493C83.0494 102.172 84.3499 109.784 89.5534 113.638C90.9003 114.626 92.3844 115.29 93.8995 115.598C94.2823 115.679 94.6806 115.743 95.0626 115.776C90.3492 119.161 83.9671 119.323 79.0244 115.662C72.6114 110.933 71.0505 101.589 75.5196 94.8031C80.0038 88.0344 88.8187 86.3663 95.2162 91.0952C95.3845 91.2086 95.5373 91.3382 95.6901 91.4677C95.3081 91.4839 94.9098 91.5163 94.527 91.5811Z" fill="black"/>
<path d="M251.619 19.2157C253.648 19.2157 255.338 20.9 255.338 23.0054C255.338 25.1107 253.648 26.795 251.619 26.795C244.011 26.7108 236.488 26.374 228.88 25.8687C229.218 28.6478 229.133 32.4374 229.133 35.2165C229.641 63.26 230.232 91.3877 230.486 119.431V122.042C230.486 124.147 228.795 125.831 226.767 125.831C224.653 125.831 222.963 124.147 222.963 122.042C222.963 116.147 222.794 110.168 222.709 104.272C222.371 78.5028 222.033 52.6489 221.441 26.8793C221.441 26.4582 221.441 25.9529 221.61 25.4476C212.143 24.8581 202.76 24.2686 193.292 24.2686C191.179 24.2686 189.488 22.5843 189.488 20.4789C189.488 18.3736 191.179 16.6893 193.292 16.6893C211.974 16.7735 230.486 18.9631 249.167 19.2157H251.619ZM299.955 75.8922C301.814 76.9027 302.406 79.1765 301.392 81.0293C297.926 87.0927 290.741 99.8091 283.555 100.904C274.342 102.336 272.397 88.8612 271.637 82.4609C271.383 80.8608 271.298 79.345 271.214 77.8291C266.818 82.9662 260.478 92.9035 258.957 96.8616C258.872 97.1143 258.788 97.2827 258.788 97.4511C258.196 99.0512 257.52 100.146 255.829 100.483C252.786 101.157 250.673 98.5459 251.434 95.5142C251.434 95.3457 251.518 95.0931 251.603 94.9247C251.603 94.7562 251.603 94.5878 251.687 94.3352C252.532 88.8612 253.124 83.0504 253.716 77.4922C255.576 61.5757 257.351 45.238 258.619 29.2373C258.703 28.5635 258.872 24.437 258.957 24.1002C258.703 21.9948 260.225 20.1421 262.254 19.8894C264.367 19.721 266.227 21.1527 266.48 23.258C266.565 26.795 265.973 31.8479 265.635 35.4691C264.367 49.7014 262.93 64.1021 261.239 78.3344C263.014 75.8922 264.705 73.7868 265.804 72.5236C268.255 69.7445 272.482 65.5338 276.37 68.5655C278.737 70.4182 278.399 74.0394 278.653 76.9027C278.906 79.8503 280.005 91.3035 282.457 93.4088C286.091 92.2298 292.769 80.9451 294.798 77.3238C295.813 75.4711 298.179 74.8816 299.955 75.8922ZM330.44 74.8816C332.468 75.3869 333.736 77.408 333.229 79.4292L332.806 80.7766C330.44 87.4296 322.071 94.3352 315.9 97.4511C306.855 101.914 297.05 101.157 294.345 89.7876C292.739 82.882 293.584 73.871 297.895 68.0602C301.276 63.5968 307.701 60.144 313.111 63.0073C316.154 64.6074 317.168 67.0496 317.591 70.2498C317.76 71.4288 317.084 72.6078 316.492 73.6184C312.688 78.587 308.969 81.0293 302.544 81.2819C302.121 81.3661 301.614 81.2819 301.276 81.1135C300.938 84.8189 301.192 91.8087 305.418 92.3982C311.927 93.3246 324.015 83.7241 325.875 77.7449C326.382 75.7237 328.411 74.4605 330.44 74.8816ZM307.954 69.6603C305.841 70.1656 304.319 71.7657 303.22 73.7026C306.264 73.4499 307.954 72.1867 309.814 69.9129C309.476 69.4076 308.884 69.4076 307.954 69.6603ZM386.901 116.736C387.662 118.673 386.732 120.863 384.788 121.621C379.8 123.389 375.235 123.558 370.079 123.473C364.331 123.305 353.342 122.126 348.439 124.063C346.579 124.905 344.297 124.063 343.452 122.21C342.606 120.273 343.452 118.084 345.311 117.157C345.396 117.157 345.565 117.073 345.649 117.073C345.649 85.5769 344.128 54.0806 344.128 22.5843C344.128 20.4789 345.819 18.7946 347.932 18.7946C349.961 18.7946 351.651 20.4789 351.651 22.5843C351.736 53.5753 353.173 84.5663 353.173 115.473C358.076 115.136 363.063 115.641 367.712 115.81C372.446 116.063 377.518 116.147 382.083 114.547C384.027 113.873 386.14 114.799 386.901 116.736ZM411.626 75.6395C413.57 76.229 414.5 78.3344 413.74 80.3556C409.09 87.0085 397.594 105.536 387.197 97.5353C385.337 96.1037 384.407 94.8405 383.984 92.4825C383.139 87.8506 384.069 74.5447 385.506 69.8287C386.267 67.8076 388.465 66.7128 390.409 67.3865C392.353 68.0602 393.367 70.1656 392.607 72.1025C391.677 75.6395 390.831 87.0927 391.423 90.8824C392.776 92.2298 393.114 92.1456 395.143 90.8824C396.157 90.2087 397.171 89.4507 398.101 88.6928C400.975 85.6611 402.919 83.3031 406.808 77.8291C407.653 75.9764 409.682 74.9658 411.626 75.6395ZM390.831 64.3548C388.887 65.1127 386.689 64.1863 386.013 62.2494C385.591 60.4809 385.675 60.3967 385.76 58.6282C385.929 56.5228 387.704 54.8385 389.817 54.8385C391.93 54.8385 393.452 56.5228 393.367 58.6282C393.114 60.8177 393.621 63.26 390.831 64.3548ZM455.983 76.1448C457.758 77.0712 458.435 79.4292 457.42 81.1977C456.659 82.6293 456.49 82.9662 455.307 84.1452C448.967 90.5455 437.471 90.2929 427.75 88.1875C429.609 90.6297 431.638 93.072 433.075 95.6826C437.809 104.188 438.908 117.831 433.751 126.505C430.624 131.811 424.96 134.253 419.55 130.547C415.155 127.6 414.901 118.084 414.732 113.115C414.394 104.525 414.732 95.2615 415.239 86.1664C413.887 85.4084 412.281 84.6505 410.167 83.8926C407.378 82.7136 404.926 80.6082 405.687 77.408C406.363 75.1342 408.561 74.3763 410.759 74.7974C412.365 75.1342 414.14 75.808 415.915 76.3975L416.084 73.7868C416.676 65.7022 417.521 57.4492 418.029 49.3646C418.113 47.3434 419.888 45.7433 422.002 45.8275C424.03 45.9118 425.637 47.5961 425.552 49.7014C425.045 58.0387 424.199 66.6286 423.608 75.05C423.439 76.3975 423.354 77.7449 423.27 79.1765C429.948 81.2819 444.487 84.3979 449.982 78.9239L450.235 78.587L450.827 77.5765C451.841 75.808 454.124 75.1342 455.983 76.1448ZM428.172 103.346C426.82 99.2196 424.791 96.7774 422.424 93.7457C422.086 100.146 422.002 106.631 422.255 112.778C422.34 115.389 422.762 122.294 423.946 124.316C425.298 125.074 425.806 124.737 426.82 123.389C430.455 118.421 429.948 108.904 428.172 103.346ZM486.211 74.8816C488.24 75.3869 489.508 77.408 489.001 79.4292L488.578 80.7766C486.211 87.4296 477.843 94.3352 471.672 97.4511C462.627 101.914 452.821 101.157 450.116 89.7876C448.51 82.882 449.356 73.871 453.667 68.0602C457.048 63.5968 463.472 60.144 468.882 63.0073C471.926 64.6074 472.94 67.0496 473.363 70.2498C473.532 71.4288 472.855 72.6078 472.264 73.6184C468.46 78.587 464.74 81.0293 458.316 81.2819C457.893 81.3661 457.386 81.2819 457.048 81.1135C456.71 84.8189 456.964 91.8087 461.19 92.3982C467.699 93.3246 479.787 83.7241 481.647 77.7449C482.154 75.7237 484.183 74.4605 486.211 74.8816ZM463.726 69.6603C461.613 70.1656 460.091 71.7657 458.992 73.7026C462.035 73.4499 463.726 72.1867 465.586 69.9129C465.248 69.4076 464.656 69.4076 463.726 69.6603ZM517.399 54.7543C520.695 63.5126 525.852 72.4394 529.825 80.9451C536.334 94.672 543.941 113.873 531.515 126.674C524.077 134.337 516.3 130.547 510.552 123.473C506.41 118.336 504.043 113.031 500.746 107.557L499.732 106.041C498.379 104.441 498.633 102.083 500.239 100.735C501.845 99.4723 504.212 99.6407 505.564 101.241L507.255 103.683C510.552 109.157 513.595 115.978 518.075 120.526C520.273 122.8 522.47 124.484 525.26 122.21C529.318 118.842 530.755 113.536 530.586 108.483C530.163 94.8405 518.159 75.3869 512.411 62.5863C508.945 54.6701 506.071 45.1538 506.325 36.3955C506.917 20.6474 519.512 16.8577 532.276 22.5001C534.558 23.5107 535.995 24.3528 537.686 26.2055C538.87 27.8898 538.531 30.2478 536.841 31.4268C535.235 32.6058 532.952 32.269 531.684 30.7531C528.81 28.4793 521.541 26.6266 517.906 28.2267C510.382 31.5953 515.285 49.1961 517.399 54.7543ZM595.237 75.8922C597.096 76.9027 597.688 79.1765 596.674 81.0293C593.208 87.0927 586.023 99.8091 578.837 100.904C569.624 102.336 567.679 88.8612 566.919 82.4609C566.665 80.8608 566.58 79.345 566.496 77.8291C562.1 82.9662 555.76 92.9035 554.239 96.8616C554.154 97.1143 554.07 97.2827 554.07 97.4511C553.478 99.0512 552.802 100.146 551.111 100.483C548.068 101.157 545.955 98.5459 546.716 95.5142C546.716 95.3457 546.8 95.0931 546.885 94.9247C546.885 94.7562 546.885 94.5878 546.969 94.3352C547.814 88.8612 548.406 83.0504 548.998 77.4922C550.858 61.5757 552.633 45.238 553.901 29.2373C553.985 28.5635 554.154 24.437 554.239 24.1002C553.985 21.9948 555.507 20.1421 557.536 19.8894C559.649 19.721 561.509 21.1527 561.762 23.258C561.847 26.795 561.255 31.8479 560.917 35.4691C559.649 49.7014 558.212 64.1021 556.521 78.3344C558.296 75.8922 559.987 73.7868 561.086 72.5236C563.537 69.7445 567.764 65.5338 571.652 68.5655C574.019 70.4182 573.681 74.0394 573.935 76.9027C574.188 79.8503 575.287 91.3035 577.739 93.4088C581.373 92.2298 588.051 80.9451 590.08 77.3238C591.095 75.4711 593.461 74.8816 595.237 75.8922ZM617.836 75.6395C619.781 76.229 620.711 78.3344 619.95 80.3556C615.301 87.0085 603.804 105.536 593.407 97.5353C591.547 96.1037 590.617 94.8405 590.195 92.4825C589.349 87.8506 590.279 74.5447 591.716 69.8287C592.477 67.8076 594.675 66.7128 596.619 67.3865C598.563 68.0602 599.578 70.1656 598.817 72.1025C597.887 75.6395 597.042 87.0927 597.634 90.8824C598.986 92.2298 599.324 92.1456 601.353 90.8824C602.367 90.2087 603.382 89.4507 604.312 88.6928C607.186 85.6611 609.13 83.3031 613.018 77.8291C613.864 75.9764 615.892 74.9658 617.836 75.6395ZM597.042 64.3548C595.098 65.1127 592.9 64.1863 592.224 62.2494C591.801 60.4809 591.885 60.3967 591.97 58.6282C592.139 56.5228 593.914 54.8385 596.027 54.8385C598.141 54.8385 599.662 56.5228 599.578 58.6282C599.324 60.8177 599.831 63.26 597.042 64.3548ZM623.789 33.448C623.704 33.7849 623.704 34.1217 623.704 34.4586C622.436 51.3015 620.915 68.6497 620.407 85.4926C620.323 87.9349 620.154 93.6615 620.492 96.8616C623.873 95.5984 629.283 88.777 630.72 86.9243C632.918 83.9768 635.031 80.7766 637.229 77.9975C638.751 76.0606 639.765 74.9658 642.301 74.9658C644.414 75.1342 645.936 76.9027 645.767 78.8397C645.598 80.1029 644.837 81.1977 643.823 81.703L642.808 82.882C638.074 89.2823 631.227 100.23 623.62 103.346C620.746 104.525 616.265 104.946 614.237 102.167C612.208 99.3038 612.715 89.1981 612.8 85.3242C613.307 68.2286 614.828 50.7962 616.181 33.7006C613.307 33.6164 610.602 33.448 608.15 32.7743C606.206 32.269 605.023 30.2478 605.614 28.3109C606.206 26.374 608.319 25.2792 610.348 25.8687C612.123 26.2897 614.321 26.4582 616.773 26.4582C616.942 23.8475 617.111 21.1527 617.111 18.7104C617.111 16.6893 618.801 15.0892 620.915 15.0892C623.028 15.0892 624.719 16.6893 624.719 18.7104C624.634 21.0684 624.549 23.5949 624.38 26.1213C628.438 25.8687 632.58 25.4476 635.792 25.5318C637.229 25.5318 637.821 25.616 638.751 25.9529L639.089 26.0371C641.118 26.5424 642.301 28.5635 641.794 30.5005C641.287 32.4374 639.258 33.6164 637.229 33.1111C636.637 32.9427 636.637 32.9427 623.789 33.448Z" fill="black"/>
</svg>
