<svg width="512" height="512" viewBox="0 0 512 512" fill="none" xmlns="http://www.w3.org/2000/svg">
<path d="M49.3254 276.104L49.325 276.105C28.73 297.905 17.3929 326.778 17.3929 357.398C17.3929 420.783 66.1489 472.53 126.292 472.53H385.714C414.682 472.53 442.015 460.497 462.674 438.703L462.676 438.701C483.271 416.906 494.607 388.024 494.607 357.404C494.607 304.243 459.526 258.287 411.908 245.699C413.849 238.695 414.851 231.378 414.851 223.966C414.851 195.47 400.068 169.465 376.589 155.886C367.622 116.772 339.996 75.3657 303.191 46.1898L303.187 46.1866C293.167 38.2886 280.019 37.2842 268.944 43.5558L268.943 43.556C257.761 49.8903 251.269 62.103 251.922 75.3894L251.922 75.3937C253.205 100.285 250.333 116.221 245.302 126.829C240.391 137.188 233.344 142.627 225.677 146.386H170.559C150.951 146.386 132.499 154.508 118.61 169.204L118.61 169.204C104.732 183.897 97.0942 203.355 97.0942 223.966C97.0942 231.342 98.1011 238.657 100.057 245.68C81.021 250.692 63.437 261.177 49.3254 276.104Z" fill="#C4C2BC" stroke="#C4C2BC" stroke-width="3.65714"/>
<path d="M279.072 190.848C283.04 196.608 284.064 204.16 279.968 210.176C273.44 219.392 258.976 221.696 254.496 235.008C253.472 238.08 253.216 240.768 253.216 243.84C253.216 247.04 250.656 249.6 247.456 249.6C244.256 249.6 241.696 247.04 241.696 243.84C241.952 234.112 244.384 226.304 251.168 219.008C256.544 213.248 261.536 210.944 267.552 206.464C270.88 203.904 272.16 202.624 270.368 198.656C268.448 194.688 263.584 193.408 259.616 192.896C254.752 192.384 244.512 193.152 241.696 197.76C240.928 198.912 240.672 202.624 241.056 204.416H241.44C245.024 204.288 245.408 203.52 249.632 204.16C252.704 204.928 254.624 208 253.856 211.072C253.088 214.016 250.144 215.936 247.072 215.296C243.232 215.424 240.16 216.704 236.064 214.912C229.28 211.84 228.768 203.776 229.792 197.376C233.12 177.92 269.088 176.512 279.072 190.848ZM247.84 253.952C250.528 253.952 252.704 256.128 252.704 258.816V264.96C252.704 267.776 250.528 269.952 247.84 269.952C245.152 269.952 242.848 267.776 242.848 264.96V258.816C242.848 256.128 245.152 253.952 247.84 253.952Z" fill="black"/>
<path d="M385.714 470.701H126.292C67.2549 470.701 19.2214 419.872 19.2214 357.398C19.2214 327.233 30.3875 298.813 50.6542 277.361C64.988 262.198 82.949 251.709 102.343 246.988C100.087 239.578 98.9228 231.808 98.9228 223.966C98.9228 203.811 106.389 184.805 119.939 170.46C133.495 156.115 151.473 148.214 170.559 148.214H226.098C242.268 140.42 256.328 125.376 253.748 75.2996C253.127 62.6666 259.295 51.1231 269.845 45.147C280.272 39.242 292.617 40.1837 302.055 47.6227C338.837 76.7803 366.315 118.204 374.983 157.075C398.273 170.2 413.023 195.815 413.023 223.966C413.023 231.849 411.863 239.62 409.625 247.005C457.316 258.668 492.779 304.351 492.779 357.404C492.779 387.569 481.614 415.998 461.347 437.445C441.018 458.891 414.158 470.701 385.714 470.701ZM170.564 171.899C157.456 171.899 145.104 177.337 135.774 187.204C126.449 197.077 121.311 210.131 121.311 223.96C121.311 233.2 123.673 242.291 128.139 250.252L137.318 266.605L119.402 268.109C99.5497 269.773 80.7606 279.013 66.4883 294.11C50.447 311.091 41.615 333.565 41.615 357.398C41.615 406.812 79.6075 447.01 126.298 447.01H385.72C408.195 447.01 429.443 437.658 445.539 420.677C461.57 403.714 470.401 381.237 470.401 357.398C470.401 311.067 436.205 271.846 392.542 268.109L374.57 266.569L383.85 250.205C388.3 242.356 390.651 233.283 390.651 223.96C390.651 203.16 378.913 184.367 360.751 176.087L355.254 173.581L354.175 167.351C348.108 132.418 323.011 93.8083 288.679 66.599C285.18 63.8512 281.744 65.2783 280.427 66.0305C279.36 66.6405 275.879 69.0096 276.12 74.0321C278.822 126.555 265.457 156.465 232.78 170.981L230.705 171.905L170.564 171.899Z" fill="black"/>
<path d="M134.201 308.955C134.971 308.855 135.781 308.715 136.554 308.696C166.289 305.425 194.472 326.326 200.568 356.247C202.026 363.166 202.18 370.048 201.065 376.69C199.223 387.83 193.968 397.692 186.369 405.291C178.612 413.048 168.426 418.376 156.998 420.088C142.288 422.317 127.329 418.597 114.745 409.655C102.243 400.714 93.6515 387.611 90.5862 372.752C87.5646 357.937 90.4014 343.122 98.6483 331.106C106.935 319.05 119.491 311.184 134.201 308.955Z" stroke="black" stroke-width="18.2857" stroke-linejoin="round"/>
<path d="M136.554 308.696C135.781 308.715 134.971 308.855 134.201 308.955C119.491 311.184 106.935 319.05 98.6483 331.106C90.4014 343.122 87.5646 357.937 90.5862 372.752C93.6515 387.611 102.243 400.714 114.745 409.655C127.329 418.597 142.288 422.317 156.998 420.088C168.426 418.376 178.612 413.048 186.369 405.291C193.968 397.692 199.223 387.83 201.065 376.69C202.18 370.048 202.026 363.166 200.568 356.247C194.472 326.326 166.289 305.425 136.554 308.696ZM134.206 314.897C127.505 324.027 124.583 335.907 127.089 348.227C131.951 371.928 154.959 388.287 178.422 384.759C184.46 383.831 190.016 381.709 194.73 378.587C195.928 377.807 197.125 376.945 198.198 376.039C194.761 396.982 178.677 413.904 156.389 417.262C127.617 421.576 99.3751 401.488 93.4232 372.344C87.4757 343.284 105.998 316.134 134.77 311.82C135.459 311.717 136.229 311.617 136.96 311.556C135.973 312.627 135.07 313.782 134.206 314.897Z" fill="black"/>
<path d="M273.903 308.736C273.131 308.754 272.321 308.894 271.551 308.994C256.88 311.185 244.283 319.09 236.037 331.106C227.79 343.122 224.953 357.937 227.936 372.791C231.001 387.651 239.592 400.754 252.134 409.655C264.677 418.638 279.677 422.317 294.348 420.126C305.978 418.38 316.165 413.135 323.883 405.416C331.404 397.896 336.577 388.032 338.415 376.729C339.529 370.087 339.374 363.206 337.956 356.248C331.822 326.365 303.639 305.464 273.903 308.736Z" stroke="black" stroke-width="18.2857"/>
<path d="M273.903 308.736C273.131 308.754 272.321 308.894 271.551 308.994C256.88 311.185 244.283 319.09 236.037 331.106C227.79 343.122 224.953 357.937 227.936 372.791C231.001 387.651 239.592 400.754 252.134 409.655C264.677 418.638 279.677 422.317 294.348 420.126C305.978 418.38 316.165 413.135 323.883 405.416C331.404 397.896 336.577 388.032 338.415 376.729C339.529 370.087 339.374 363.206 337.956 356.248C331.822 326.365 303.639 305.464 273.903 308.736ZM271.594 314.898C264.891 323.946 261.931 335.864 264.478 348.226C269.301 371.966 292.348 388.287 315.772 384.798C321.809 383.87 327.364 381.749 332.078 378.627C333.277 377.846 334.475 376.984 335.546 376.08C332.111 397.022 316.025 413.945 293.779 417.261C264.966 421.616 236.764 401.488 230.773 372.383C224.866 343.283 243.347 316.174 272.12 311.859C272.848 311.717 273.579 311.657 274.309 311.597C273.363 312.626 272.417 313.74 271.594 314.898Z" fill="black"/>
</svg>
